<svg xmlns="http://www.w3.org/2000/svg" width="29" height="27" viewBox="0 0 29 27">
    <path fill="none" stroke="#FFF" stroke-width="2" d="M27.805 5.656c-.138-.137-.278-.195-.478-.195h-6.02V2.788c0-.501-.167-.903-.525-1.262-.36-.359-.762-.526-1.263-.526H9.481c-.501 0-.904.167-1.262.526-.36.359-.527.761-.527 1.262v2.673H1.673c-.2 0-.34.058-.478.195-.137.138-.195.278-.195.478v2.231c0 .642.192 1.302.59 1.993.42.73.992 1.394 1.72 1.993.733.602 1.645 1.116 2.74 1.538 1.09.42 2.235.656 3.44.71l.462.02.283.365c.437.561.93 1.053 1.533 1.524.556.497.956 1.049 1.184 1.656.214.567.317 1.205.317 1.912 0 .853-.253 1.608-.76 2.221-.564.687-1.416 1.01-2.47 1.01-.65 0-1.21.19-1.713.582-.441.343-.634.72-.634 1.207v.673h13.615v-.673c0-.487-.192-.863-.633-1.207-.504-.391-1.063-.582-1.713-.582-1.055 0-1.907-.323-2.47-1.009-.507-.614-.76-1.369-.76-2.222 0-.707.103-1.345.317-1.912.229-.607.628-1.158 1.239-1.702.549-.425 1.041-.917 1.477-1.478l.284-.365.462-.02c1.205-.054 2.35-.29 3.44-.71 1.096-.422 2.008-.936 2.74-1.539.728-.599 1.3-1.262 1.72-1.992.398-.69.59-1.351.59-1.993v-2.23c0-.2-.058-.341-.195-.479zM4.542 10.441s0 0 0 0h0s0 0 0 0zm-1.329 1.495h0c-1.291-1.148-1.982-2.333-1.982-3.571V5.692h6.461v1c0 2.29.402 4.304 1.2 6.05l.818 1.792-1.93-.397c-1.804-.37-3.332-1.104-4.567-2.201zm24.556-3.57c0 1.237-.691 2.422-1.982 3.57-1.235 1.097-2.763 1.83-4.567 2.201l-1.93.397.819-1.792c.797-1.745 1.199-3.76 1.199-6.05v-1h6.46v2.673z" opacity=".7"/>
</svg>
