<svg xmlns="http://www.w3.org/2000/svg" width="55" height="106" viewBox="0 0 55 106">
    <path fill="none" stroke="#1F314A" stroke-width="2" d="M53.675 1v104H1V1h52.675zM21.26 73.935h-2.702V102.3h2.702V73.935zm6.753 0h-2.701V102.3h2.701V73.935zm21.61-6.753H3.701v35.117h3.533V82.984h7.065v-12.29H31.96v12.29h14.13V102.3h3.532V67.182zM14.506 86.09h-2.7v14.857h2.7V86.091zm21.61 0h-2.7v14.857h2.7V86.091zm5.403 0h-2.7v14.857h2.7V86.091zM11.805 52.325H3.701V63.13h4.863v-7.204h3.241v-3.601zm37.818-21.61H3.701v11.942h26.494v6.824h8.831v10.237h-3.532v3.412h7.064V44.363h7.065V30.714zM33.416 59.077h-20.26v2.701h20.26v-2.701zm16.207-12.156h-2.7V61.78h2.7V46.922zm-13.506 5.403h-20.26v2.701h20.26v-2.701zm-8.104-5.403H7.753v2.701h20.26v-2.7zm13.506-35.117h-2.7v14.857h2.7V11.805zm-5.402 0h-2.701v14.857h2.7V11.805zm-8.104 0h-2.701v14.857h2.701V11.805zm-6.753 0h-2.702v14.857h2.702V11.805zm-6.754 0h-2.7v14.857h2.7V11.805zm35.117-8.104H3.701v22.961h3.533V7.234H46.09v19.428h3.532V3.702z"/>
</svg>
