<svg xmlns="http://www.w3.org/2000/svg" width="23" height="30" viewBox="0 0 23 30">
    <path fill="#FFF" d="M21.44 11.313h-4.69c-.61 0-1.108.503-1.108 1.118 0 .615.498 1.119 1.108 1.119h3.564v13.234H2.216V13.55H6.15c.609 0 1.108-.504 1.108-1.119s-.499-1.118-1.108-1.118H1.09c-.61 0-1.09.559-1.09 1.174v15.509c0 .615.48 1.025 1.09 1.025h20.35c.61 0 1.09-.41 1.09-1.025V12.487c0-.615-.48-1.174-1.09-1.174zM11.08 19.7c.61 0 1.108-.503 1.108-1.119V3.428l4.728 4.25c.203.186.48.28.739.28.314 0 .609-.131.83-.373.407-.466.37-1.175-.092-1.585L12.023.278c-.407-.354-.998-.373-1.423-.038-.203.094-.37.261-.48.448l-5.522 5.35c-.443.428-.461 1.137-.037 1.584.425.447 1.127.466 1.57.037l3.841-3.728v14.651c0 .616.499 1.119 1.108 1.119z" opacity=".7"/>
</svg>
